<svg aria-hidden="true" style="position: absolute; width: 0; height: 0; overflow: hidden;" version="1.1" xmlns="http://www.w3.org/2000/svg" xmlns:xlink="http://www.w3.org/1999/xlink">
<defs>
<symbol id="menu-icon" viewBox="0 0 32 32">
<path d="M6.667 13.333h2.667c2.667 0 4-1.333 4-4v-2.667c0-2.667-1.333-4-4-4h-2.667c-2.667 0-4 1.333-4 4v2.667c0 2.667 1.333 4 4 4z"></path>
<path fill="none" stroke="#222" stroke-width="2" stroke-miterlimit="4" stroke-linecap="butt" stroke-linejoin="round" style="stroke: var(--color1, #222)" d="M9.333 13.333c2.667 0 4-1.333 4-4v-2.667c0-2.667-1.333-4-4-4h-2.667c-2.667 0-4 1.333-4 4v2.667c0 2.667 1.333 4 4 4h2.667z"></path>
<path d="M22.667 13.333h2.667c2.667 0 4-1.333 4-4v-2.667c0-2.667-1.333-4-4-4h-2.667c-2.667 0-4 1.333-4 4v2.667c0 2.667 1.333 4 4 4z"></path>
<path fill="none" stroke="#222" stroke-width="2" stroke-miterlimit="4" stroke-linecap="butt" stroke-linejoin="round" style="stroke: var(--color1, #222)" d="M25.333 13.333c2.667 0 4-1.333 4-4v-2.667c0-2.667-1.333-4-4-4h-2.667c-2.667 0-4 1.333-4 4v2.667c0 2.667 1.333 4 4 4h2.667z"></path>
<path d="M22.667 29.333h2.667c2.667 0 4-1.333 4-4v-2.667c0-2.667-1.333-4-4-4h-2.667c-2.667 0-4 1.333-4 4v2.667c0 2.667 1.333 4 4 4z"></path>
<path fill="none" stroke="#222" stroke-width="2" stroke-miterlimit="4" stroke-linecap="butt" stroke-linejoin="round" style="stroke: var(--color1, #222)" d="M25.333 29.333c2.667 0 4-1.333 4-4v-2.667c0-2.667-1.333-4-4-4h-2.667c-2.667 0-4 1.333-4 4v2.667c0 2.667 1.333 4 4 4h2.667z"></path>
<path d="M6.667 29.333h2.667c2.667 0 4-1.333 4-4v-2.667c0-2.667-1.333-4-4-4h-2.667c-2.667 0-4 1.333-4 4v2.667c0 2.667 1.333 4 4 4z"></path>
<path fill="none" stroke="#222" stroke-width="2" stroke-miterlimit="4" stroke-linecap="butt" stroke-linejoin="round" style="stroke: var(--color1, #222)" d="M9.333 29.333c2.667 0 4-1.333 4-4v-2.667c0-2.667-1.333-4-4-4h-2.667c-2.667 0-4 1.333-4 4v2.667c0 2.667 1.333 4 4 4h2.667z"></path>
</symbol>
</defs>
</svg>
